<mxfile host="app.diagrams.net" modified="2023-03-14T06:09:57.629Z" agent="5.0 (Windows)" etag="UbPeKkmooH9uAxZGI3LC" version="20.7.2" type="github">
  <diagram id="C5RBs43oDa-KdzZeNtuy" name="Page-1">
    <mxGraphModel dx="1195" dy="587" grid="1" gridSize="10" guides="1" tooltips="1" connect="1" arrows="1" fold="1" page="1" pageScale="1" pageWidth="827" pageHeight="1169" math="0" shadow="0">
      <root>
        <mxCell id="WIyWlLk6GJQsqaUBKTNV-0" />
        <mxCell id="WIyWlLk6GJQsqaUBKTNV-1" parent="WIyWlLk6GJQsqaUBKTNV-0" />
        <mxCell id="Rz1r7BLWpb3uSR28krth-3" style="edgeStyle=orthogonalEdgeStyle;rounded=0;orthogonalLoop=1;jettySize=auto;html=1;exitX=0.5;exitY=1;exitDx=0;exitDy=0;entryX=0.5;entryY=0;entryDx=0;entryDy=0;" edge="1" parent="WIyWlLk6GJQsqaUBKTNV-1" source="Rz1r7BLWpb3uSR28krth-0" target="Rz1r7BLWpb3uSR28krth-1">
          <mxGeometry relative="1" as="geometry" />
        </mxCell>
        <mxCell id="Rz1r7BLWpb3uSR28krth-0" value="&lt;div&gt;validateCreate&lt;/div&gt;" style="rounded=0;whiteSpace=wrap;html=1;" vertex="1" parent="WIyWlLk6GJQsqaUBKTNV-1">
          <mxGeometry x="200" y="60" width="120" height="60" as="geometry" />
        </mxCell>
        <mxCell id="Rz1r7BLWpb3uSR28krth-9" style="edgeStyle=orthogonalEdgeStyle;rounded=0;orthogonalLoop=1;jettySize=auto;html=1;exitX=1;exitY=0.5;exitDx=0;exitDy=0;entryX=0;entryY=0.5;entryDx=0;entryDy=0;" edge="1" parent="WIyWlLk6GJQsqaUBKTNV-1" source="Rz1r7BLWpb3uSR28krth-1" target="Rz1r7BLWpb3uSR28krth-5">
          <mxGeometry relative="1" as="geometry">
            <Array as="points">
              <mxPoint x="330" y="270" />
              <mxPoint x="385" y="270" />
              <mxPoint x="385" y="180" />
            </Array>
          </mxGeometry>
        </mxCell>
        <mxCell id="Rz1r7BLWpb3uSR28krth-1" value="&lt;div&gt;hosts_groups&lt;/div&gt;&lt;div&gt;hosts_tags&lt;/div&gt;&lt;div&gt;hosts_interfaces&lt;/div&gt;&lt;div&gt;user_macros&lt;br&gt;&lt;/div&gt;&lt;div&gt;templates_hostids&lt;/div&gt;&lt;div&gt;inventory...&lt;/div&gt;&lt;div&gt;host_rtdata&lt;br&gt;&lt;/div&gt;&lt;div&gt;&lt;br&gt;&lt;/div&gt;" style="rounded=1;whiteSpace=wrap;html=1;" vertex="1" parent="WIyWlLk6GJQsqaUBKTNV-1">
          <mxGeometry x="200" y="180" width="130" height="150" as="geometry" />
        </mxCell>
        <mxCell id="Rz1r7BLWpb3uSR28krth-5" value="" style="rounded=1;whiteSpace=wrap;html=1;" vertex="1" parent="WIyWlLk6GJQsqaUBKTNV-1">
          <mxGeometry x="440" y="150" width="120" height="60" as="geometry" />
        </mxCell>
      </root>
    </mxGraphModel>
  </diagram>
</mxfile>
